<svg width="20" height="20" viewBox="0 0 20 20" fill="none" xmlns="http://www.w3.org/2000/svg">
<rect width="20" height="20" fill="#E5E5E5"/>
<g id="Article desktop" clip-path="url(#clip0_0_1)">
<rect width="1440" height="5909" transform="translate(-925 -1474)" fill="white"/>
<g id="Group 4">
<g id="Rectangle 7" filter="url(#filter0_d_0_1)">
<rect x="-25" y="-12" width="140" height="44" rx="4" fill="white"/>
<rect x="-24.5" y="-11.5" width="139" height="43" rx="3.5" stroke="#EAEAEA"/>
</g>
<g id="facebook 1" clip-path="url(#clip1_0_1)">
<g id="Group">
<path id="Vector" d="M10.0001 0.041626C4.47724 0.041626 0 4.51886 0 10.0417C0 14.995 3.60522 19.0972 8.33225 19.8916V12.128H5.91994V9.33417H8.33225V7.27413C8.33225 4.88389 9.79213 3.58135 11.9247 3.58135C12.9461 3.58135 13.8238 3.65746 14.0786 3.69098V6.18942L12.5995 6.19013C11.44 6.19013 11.2165 6.74102 11.2165 7.54969V9.33274H13.9832L13.6223 12.1265H11.2165V19.9584C16.1642 19.3562 20 15.1495 20 10.0388C20 4.51886 15.5228 0.041626 10.0001 0.041626Z" fill="#010002"/>
</g>
</g>
</g>
</g>
<defs>
<filter id="filter0_d_0_1" x="-29" y="-15" width="148" height="52" filterUnits="userSpaceOnUse" color-interpolation-filters="sRGB">
<feFlood flood-opacity="0" result="BackgroundImageFix"/>
<feColorMatrix in="SourceAlpha" type="matrix" values="0 0 0 0 0 0 0 0 0 0 0 0 0 0 0 0 0 0 127 0" result="hardAlpha"/>
<feOffset dy="1"/>
<feGaussianBlur stdDeviation="2"/>
<feColorMatrix type="matrix" values="0 0 0 0 0 0 0 0 0 0 0 0 0 0 0 0 0 0 0.08 0"/>
<feBlend mode="normal" in2="BackgroundImageFix" result="effect1_dropShadow_0_1"/>
<feBlend mode="normal" in="SourceGraphic" in2="effect1_dropShadow_0_1" result="shape"/>
</filter>
<clipPath id="clip0_0_1">
<rect width="1440" height="5909" fill="white" transform="translate(-925 -1474)"/>
</clipPath>
<clipPath id="clip1_0_1">
<rect width="20" height="20" fill="white"/>
</clipPath>
</defs>
</svg>
